<svg xmlns="http://www.w3.org/2000/svg" width="256" height="256" viewBox="0 0 100 100"><rect width="100" height="100" rx="20" fill="#1a1a37"></rect><path fill="#fff" d="M39.51 39.58L39.51 39.58Q39.51 42.55 38.10 45.07Q36.68 47.58 33.37 48.96L33.37 48.96Q37.30 50.28 39.24 53.07Q41.17 55.86 41.17 59.38L41.17 59.38Q41.17 65.66 36.65 68.70Q32.13 71.73 23.78 71.73L23.78 71.73Q20.88 71.73 18.16 71.49Q15.43 71.25 12.95 70.56L12.95 70.56Q10.05 69.73 10.05 67.39L10.05 67.39L10.05 32.06Q10.05 30.06 12.33 29.44L12.33 29.44Q14.67 28.75 17.29 28.51Q19.92 28.26 23.02 28.26L23.02 28.26Q30.82 28.26 35.16 31.02Q39.51 33.78 39.51 39.58ZM24.95 51.45L15.57 51.45L15.57 66.35Q17.23 66.70 19.40 66.91Q21.57 67.11 23.78 67.11L23.78 67.11Q29.51 67.11 32.47 65.21Q35.44 63.32 35.44 59.25L35.44 59.25Q35.44 55.66 32.78 53.55Q30.13 51.45 24.95 51.45L24.95 51.45ZM15.57 33.51L15.57 46.89L24.95 46.89Q29.30 46.89 31.54 44.96Q33.79 43.03 33.79 39.72L33.79 39.72Q33.79 32.89 23.02 32.89L23.02 32.89Q20.61 32.89 18.85 33.06Q17.09 33.23 15.57 33.51L15.57 33.51ZM62.97 67.18L62.97 67.18Q67.59 67.18 69.98 65.08Q72.36 62.97 72.36 59.66L72.36 59.66Q72.36 56.76 70.53 54.97Q68.70 53.17 64.77 52.00L64.77 52.00L58.76 50.21Q54.35 48.90 51.83 46.34Q49.31 43.79 49.31 39.44L49.31 39.44Q49.31 36.82 50.31 34.72Q51.31 32.61 53.17 31.16Q55.04 29.71 57.62 28.92Q60.21 28.13 63.46 28.13L63.46 28.13Q66.22 28.13 68.60 28.58Q70.98 29.02 72.74 29.82Q74.50 30.61 75.46 31.58Q76.43 32.54 76.43 33.58L76.43 33.58Q76.43 34.54 75.94 35.23Q75.46 35.92 74.70 36.34L74.70 36.34Q72.91 34.96 70.04 33.92Q67.18 32.89 63.66 32.89L63.66 32.89Q59.59 32.89 57.28 34.61Q54.97 36.34 54.97 39.44L54.97 39.44Q54.97 41.86 56.62 43.38Q58.28 44.89 62.14 46.00L62.14 46.00L66.35 47.24Q71.80 48.83 74.94 51.69Q78.08 54.55 78.08 59.66L78.08 59.66Q78.08 65.11 74.15 68.49Q70.22 71.87 62.97 71.87L62.97 71.87Q59.80 71.87 57.21 71.32Q54.62 70.77 52.79 69.87Q50.97 68.97 49.97 67.91Q48.97 66.84 48.97 65.80L48.97 65.80Q48.97 64.63 49.69 63.83Q50.41 63.04 51.38 62.70L51.38 62.70Q52.14 63.45 53.24 64.25Q54.35 65.04 55.80 65.70Q57.25 66.35 59.04 66.77Q60.83 67.18 62.97 67.18ZM82.43 68.08L82.43 68.08Q82.43 66.42 83.43 65.32Q84.43 64.21 86.23 64.21L86.23 64.21Q88.02 64.21 88.99 65.32Q89.95 66.42 89.95 68.08L89.95 68.08Q89.95 69.66 88.99 70.77Q88.02 71.87 86.23 71.87L86.23 71.87Q84.43 71.87 83.43 70.77Q82.43 69.66 82.43 68.08Z"></path></svg>